{
	"asset": {
		"generator": "Unity 5.6.3f1",
		"extras": {
			"exporterVersion" : "2.2.1"
		},
		"version": "2.0"
	},
	"accessors": [
		{
			"bufferView": 2,
			"byteOffset": 0,
			"componentType": 5126,
			"count": 182,
			"max": [ 0.1482862, -0.3540978, 0.02462467 ],
			"min": [ -0.1481895, -0.4751588, -0.05353873 ],
			"type": "VEC3"
		},
		{
			"bufferView": 2,
			"byteOffset": 2184,
			"componentType": 5126,
			"count": 182,
			"max": [ 0.9716797, 0.6219753, 0.9986641 ],
			"min": [ -0.9717247, -0.9990292, -0.9999297 ],
			"type": "VEC3"
		},
		{
			"bufferView": 1,
			"byteOffset": 0,
			"componentType": 5126,
			"count": 182,
			"max": [ 2.036531, 1.491313 ],
			"min": [ -1.036531, -0.4913116 ],
			"type": "VEC2"
		},
		{
			"bufferView": 3,
			"byteOffset": 0,
			"componentType": 5126,
			"count": 182,
			"max": [ 0.9999955, 0.9855011, 0.1480412, 1 ],
			"min": [ -0.9998745, -0.9855285, -0.1481226, 1 ],
			"type": "VEC4"
		},
		{
			"bufferView": 0,
			"byteOffset": 0,
			"componentType": 5123,
			"count": 276,
			"max": [ 181 ],
			"min": [ 0 ],
			"type": "SCALAR"
		},
		{
			"bufferView": 2,
			"byteOffset": 4368,
			"componentType": 5126,
			"count": 99,
			"max": [ 0.1653306, 0.4499043, 0.04464518 ],
			"min": [ 0.1377097, -0.4665, -0.01088343 ],
			"type": "VEC3"
		},
		{
			"bufferView": 2,
			"byteOffset": 5556,
			"componentType": 5126,
			"count": 99,
			"max": [ 0.9836104, 0.8599356, 0.996164 ],
			"min": [ -0.6602773, -0.8527449, -0.9970642 ],
			"type": "VEC3"
		},
		{
			"bufferView": 1,
			"byteOffset": 1456,
			"componentType": 5126,
			"count": 99,
			"max": [ 8.623543, 8.623543 ],
			"min": [ -7.623543, 0 ],
			"type": "VEC2"
		},
		{
			"bufferView": 3,
			"byteOffset": 2912,
			"componentType": 5126,
			"count": 99,
			"max": [ 0.9971191, 0.6602892, 0.5000057, 1 ],
			"min": [ -0.9996056, -0.996851, -0.2709293, 1 ],
			"type": "VEC4"
		},
		{
			"bufferView": 0,
			"byteOffset": 552,
			"componentType": 5123,
			"count": 162,
			"max": [ 98 ],
			"min": [ 0 ],
			"type": "SCALAR"
		},
		{
			"bufferView": 2,
			"byteOffset": 6744,
			"componentType": 5126,
			"count": 16,
			"max": [ 0.1365526, 0.0114913, 0.009112922 ],
			"min": [ -0.1365524, -0.01149124, -0.009112909 ],
			"type": "VEC3"
		},
		{
			"bufferView": 2,
			"byteOffset": 6936,
			"componentType": 5126,
			"count": 16,
			"max": [ 0.3592851, 0.9664459, -0.02200179 ],
			"min": [ -0.3594334, 0.9172775, -0.2604861 ],
			"type": "VEC3"
		},
		{
			"bufferView": 3,
			"byteOffset": 4496,
			"componentType": 5126,
			"count": 16,
			"max": [ 1, 0, 0, 1 ],
			"min": [ 1, 0, 0, 1 ],
			"type": "VEC4"
		},
		{
			"bufferView": 0,
			"byteOffset": 876,
			"componentType": 5123,
			"count": 36,
			"max": [ 15 ],
			"min": [ 0 ],
			"type": "SCALAR"
		},
		{
			"bufferView": 2,
			"byteOffset": 7128,
			"componentType": 5126,
			"count": 110,
			"max": [ 0.1571905, 0.2400883, -0.0178163 ],
			"min": [ -0.1571899, -0.3695513, -0.1273376 ],
			"type": "VEC3"
		},
		{
			"bufferView": 2,
			"byteOffset": 8448,
			"componentType": 5126,
			"count": 110,
			"max": [ 0.9514965, 0.4893899, -0.2568214 ],
			"min": [ -0.9554267, -0.5181456, -0.9983006 ],
			"type": "VEC3"
		},
		{
			"bufferView": 3,
			"byteOffset": 4752,
			"componentType": 5126,
			"count": 110,
			"max": [ 1, 0, 0, 1 ],
			"min": [ 1, 0, 0, 1 ],
			"type": "VEC4"
		},
		{
			"bufferView": 0,
			"byteOffset": 948,
			"componentType": 5123,
			"count": 264,
			"max": [ 109 ],
			"min": [ 0 ],
			"type": "SCALAR"
		},
		{
			"bufferView": 2,
			"byteOffset": 9768,
			"componentType": 5126,
			"count": 1126,
			"max": [ 0.1630732, 0.3804537, 0.1779088 ],
			"min": [ -0.1630601, -0.337493, 0.03420313 ],
			"type": "VEC3"
		},
		{
			"bufferView": 2,
			"byteOffset": 23280,
			"componentType": 5126,
			"count": 1126,
			"max": [ 0.998904, 0.9999999, 0.9999996 ],
			"min": [ -0.9988985, -1, -1 ],
			"type": "VEC3"
		},
		{
			"bufferView": 3,
			"byteOffset": 6512,
			"componentType": 5126,
			"count": 1126,
			"max": [ 1, 0, 0, 1 ],
			"min": [ 1, 0, 0, 1 ],
			"type": "VEC4"
		},
		{
			"bufferView": 0,
			"byteOffset": 1476,
			"componentType": 5123,
			"count": 5796,
			"max": [ 1125 ],
			"min": [ 0 ],
			"type": "SCALAR"
		},
		{
			"bufferView": 2,
			"byteOffset": 36792,
			"componentType": 5126,
			"count": 1028,
			"max": [ 0.1998609, 0.4973769, 0.1174634 ],
			"min": [ -0.1998609, -0.4973769, -0.1274648 ],
			"type": "VEC3"
		},
		{
			"bufferView": 2,
			"byteOffset": 49128,
			"componentType": 5126,
			"count": 1028,
			"max": [ 0.9999675, 0.9989557, 0.9999759 ],
			"min": [ -0.9999636, -0.9990326, -0.9997473 ],
			"type": "VEC3"
		},
		{
			"bufferView": 3,
			"byteOffset": 24528,
			"componentType": 5126,
			"count": 1028,
			"max": [ 1, 0, 0, 1 ],
			"min": [ 1, 0, 0, 1 ],
			"type": "VEC4"
		},
		{
			"bufferView": 0,
			"byteOffset": 13068,
			"componentType": 5123,
			"count": 2670,
			"max": [ 1027 ],
			"min": [ 0 ],
			"type": "SCALAR"
		},
		{
			"bufferView": 2,
			"byteOffset": 61464,
			"componentType": 5126,
			"count": 6884,
			"max": [ 0.1655049, 0.3569087, 0.1543734 ],
			"min": [ -0.1654817, -0.3139596, 0.0577386 ],
			"type": "VEC3"
		},
		{
			"bufferView": 2,
			"byteOffset": 144072,
			"componentType": 5126,
			"count": 6884,
			"max": [ 1, 1, 1 ],
			"min": [ -1, -1, -1 ],
			"type": "VEC3"
		},
		{
			"bufferView": 3,
			"byteOffset": 40976,
			"componentType": 5126,
			"count": 6884,
			"max": [ 1, 0, 0, 1 ],
			"min": [ 1, 0, 0, 1 ],
			"type": "VEC4"
		},
		{
			"bufferView": 0,
			"byteOffset": 18408,
			"componentType": 5123,
			"count": 17136,
			"max": [ 6883 ],
			"min": [ 0 ],
			"type": "SCALAR"
		},
		{
			"bufferView": 2,
			"byteOffset": 226680,
			"componentType": 5126,
			"count": 246,
			"max": [ 0.17399, 0.4744636, 0.1274648 ],
			"min": [ -0.1739283, -0.4649952, 0.01795132 ],
			"type": "VEC3"
		},
		{
			"bufferView": 2,
			"byteOffset": 229632,
			"componentType": 5126,
			"count": 246,
			"max": [ 1, 0.998414, 1 ],
			"min": [ -1, -0.9813247, 0 ],
			"type": "VEC3"
		},
		{
			"bufferView": 3,
			"byteOffset": 151120,
			"componentType": 5126,
			"count": 246,
			"max": [ 1, 0, 0, 1 ],
			"min": [ 1, 0, 0, 1 ],
			"type": "VEC4"
		},
		{
			"bufferView": 0,
			"byteOffset": 52680,
			"componentType": 5123,
			"count": 669,
			"max": [ 245 ],
			"min": [ 0 ],
			"type": "SCALAR"
		},
		{
			"bufferView": 2,
			"byteOffset": 232584,
			"componentType": 5126,
			"count": 97,
			"max": [ -0.1377572, 0.4498825, 0.04464515 ],
			"min": [ -0.1652381, -0.4665239, -0.01088337 ],
			"type": "VEC3"
		},
		{
			"bufferView": 2,
			"byteOffset": 233748,
			"componentType": 5126,
			"count": 97,
			"max": [ 0.6604194, 0.8598877, 0.9961618 ],
			"min": [ -0.9835845, -0.8526527, -0.9970624 ],
			"type": "VEC3"
		},
		{
			"bufferView": 1,
			"byteOffset": 2248,
			"componentType": 5126,
			"count": 97,
			"max": [ 13.08576, 13.08576 ],
			"min": [ -12.08576, 2.980232E-08 ],
			"type": "VEC2"
		},
		{
			"bufferView": 3,
			"byteOffset": 155056,
			"componentType": 5126,
			"count": 97,
			"max": [ 0.9971176, 0.9968364, 0.2709121, 1 ],
			"min": [ -0.9996046, -0.6604314, -0.4045004, 1 ],
			"type": "VEC4"
		},
		{
			"bufferView": 0,
			"byteOffset": 54018,
			"componentType": 5123,
			"count": 162,
			"max": [ 96 ],
			"min": [ 0 ],
			"type": "SCALAR"
		},
		{
			"bufferView": 2,
			"byteOffset": 234912,
			"componentType": 5126,
			"count": 1311,
			"max": [ 0.1748308, 0.4973769, 0.1274648 ],
			"min": [ -0.1747552, -0.4937648, -0.1274648 ],
			"type": "VEC3"
		},
		{
			"bufferView": 2,
			"byteOffset": 250644,
			"componentType": 5126,
			"count": 1311,
			"max": [ 0.9999862, 0.9999942, 0.9971813 ],
			"min": [ -0.999987, -0.9990929, -0.9998568 ],
			"type": "VEC3"
		},
		{
			"bufferView": 3,
			"byteOffset": 156608,
			"componentType": 5126,
			"count": 1311,
			"max": [ 1, 0, 0, 1 ],
			"min": [ 1, 0, 0, 1 ],
			"type": "VEC4"
		},
		{
			"bufferView": 0,
			"byteOffset": 54342,
			"componentType": 5123,
			"count": 3957,
			"max": [ 1310 ],
			"min": [ 0 ],
			"type": "SCALAR"
		}
	],
	"buffers": [
		{
			"byteLength": 509240,
			"uri": "xiaojiaoche3.bin"
		}
	],
	"bufferViews": [
		{
			"buffer": 0,
			"byteLength": 62256,
			"target": 34963,
			"byteOffset": 446984
		},
		{
			"buffer": 0,
			"byteLength": 3024,
			"target": 34962,
			"byteStride": 8,
			"byteOffset": 0
		},
		{
			"buffer": 0,
			"byteLength": 266376,
			"target": 34962,
			"byteStride": 12,
			"byteOffset": 3024
		},
		{
			"buffer": 0,
			"byteLength": 177584,
			"target": 34962,
			"byteStride": 16,
			"byteOffset": 269400
		}
	],
	"images": [
		{
			"uri": "Assets/FBX/CarModel/小轿车1(2).fbm/Archmodels55_light_red.jpg"
		},
		{
			"uri": "Assets/FBX/CarModel/小轿车1(2).fbm/Archmodels55_light_orange.jpg"
		},
		{
			"uri": "Assets/FBX/CarModel/小轿车1(2).fbm/che14.jpg"
		},
		{
			"uri": "Assets/FBX/CarModel/小轿车1(2).fbm/che6.png"
		},
		{
			"uri": "Assets/FBX/CarModel/小轿车1(2).fbm/che5.jpg"
		},
		{
			"uri": "Assets/FBX/CarModel/小轿车3(1).fbm/che15.jpg"
		}
	],
	"materials": [
		{
			"pbrMetallicRoughness": {
				"baseColorTexture" : {
					"index" : 0,
					"texCoord" : 0
				},
				"baseColorFactor": [0.627451, 0.0627451, 0.0627451, 1],
				"metallicFactor": 0,
				"roughnessFactor": 0.5
			},
			"emissiveFactor": [0, 0, 0],
			"doubleSided": false,
			"name": "Archmodels55_light_red"
		},
		{
			"pbrMetallicRoughness": {
				"baseColorTexture" : {
					"index" : 1,
					"texCoord" : 0
				},
				"baseColorFactor": [0.6901961, 0.3058824, 0.1176471, 1],
				"metallicFactor": 0,
				"roughnessFactor": 0.5
			},
			"emissiveFactor": [0, 0, 0],
			"doubleSided": false,
			"name": "Archmodels55_light_orange"
		},
		{
			"pbrMetallicRoughness": {
				"baseColorTexture" : {
					"index" : 2,
					"texCoord" : 0
				},
				"baseColorFactor": [0.9490197, 0.9647059, 0.5607843, 1],
				"metallicFactor": 0,
				"roughnessFactor": 0.5
			},
			"emissiveFactor": [0, 0, 0],
			"doubleSided": false,
			"name": "che14"
		},
		{
			"pbrMetallicRoughness": {
				"baseColorTexture" : {
					"index" : 3,
					"texCoord" : 0
				},
				"baseColorFactor": [0.1568628, 0.1568628, 0.1568628, 1],
				"metallicFactor": 0,
				"roughnessFactor": 0.5
			},
			"alphaMode": "BLEND",
			"alphaCutoff": 0.5,
			"emissiveFactor": [0, 0, 0],
			"doubleSided": false,
			"name": "che6"
		},
		{
			"pbrMetallicRoughness": {
				"baseColorFactor": [0.05882354, 0.05882354, 0.05882354, 1],
				"metallicFactor": 0,
				"roughnessFactor": 0.5
			},
			"emissiveFactor": [0, 0, 0],
			"doubleSided": false,
			"name": "Rubber"
		},
		{
			"pbrMetallicRoughness": {
				"baseColorTexture" : {
					"index" : 4,
					"texCoord" : 0
				},
				"baseColorFactor": [0.1098039, 0.1098039, 0.1098039, 1],
				"metallicFactor": 0,
				"roughnessFactor": 0.5
			},
			"emissiveFactor": [0, 0, 0],
			"doubleSided": false,
			"name": "che5"
		},
		{
			"pbrMetallicRoughness": {
				"baseColorFactor": [0.6, 0.6, 0.6, 1],
				"metallicFactor": 0,
				"roughnessFactor": 0.5
			},
			"emissiveFactor": [0, 0, 0],
			"doubleSided": false,
			"name": "Chrome"
		},
		{
			"pbrMetallicRoughness": {
				"baseColorTexture" : {
					"index" : 5,
					"texCoord" : 0
				},
				"baseColorFactor": [0.1019608, 0.4509804, 0.8431373, 1],
				"metallicFactor": 0,
				"roughnessFactor": 0.5
			},
			"emissiveFactor": [0, 0, 0],
			"doubleSided": false,
			"name": "che15"
		}
	],
	"meshes": [
		{
			"name": "mesh_Civic_bodydetachobj5_23944Civic_bodydetachobj5",
			"primitives": [
				{
					"attributes": {
						"POSITION": 0,
						"NORMAL": 1,
						"TEXCOORD_0": 2,
						"TANGENT": 3
					},
					"indices": 4,
					"material": 0,
					"mode": 4
				}
			]
		},
		{
			"name": "mesh_Civic_bodydetachobj6_23946Civic_bodydetachobj6",
			"primitives": [
				{
					"attributes": {
						"POSITION": 5,
						"NORMAL": 6,
						"TEXCOORD_0": 7,
						"TANGENT": 8
					},
					"indices": 9,
					"material": 1,
					"mode": 4
				}
			]
		},
		{
			"name": "mesh_Civic_bodydetachobj8_23950Civic_bodydetachobj8",
			"primitives": [
				{
					"attributes": {
						"POSITION": 10,
						"NORMAL": 11,
						"TANGENT": 12
					},
					"indices": 13,
					"material": 2,
					"mode": 4
				}
			]
		},
		{
			"name": "mesh_Civic_bodydetachobj4_23942Civic_bodydetachobj4",
			"primitives": [
				{
					"attributes": {
						"POSITION": 14,
						"NORMAL": 15,
						"TANGENT": 16
					},
					"indices": 17,
					"material": 3,
					"mode": 4
				}
			]
		},
		{
			"name": "mesh_Civic_bodydetachobj9_23952Civic_bodydetachobj9",
			"primitives": [
				{
					"attributes": {
						"POSITION": 18,
						"NORMAL": 19,
						"TANGENT": 20
					},
					"indices": 21,
					"material": 4,
					"mode": 4
				}
			]
		},
		{
			"name": "mesh_Civic_bodydetachobj2_23938Civic_bodydetachobj2",
			"primitives": [
				{
					"attributes": {
						"POSITION": 22,
						"NORMAL": 23,
						"TANGENT": 24
					},
					"indices": 25,
					"material": 5,
					"mode": 4
				}
			]
		},
		{
			"name": "mesh_Civic_bodydetachobj10_23954Civic_bodydetachobj10",
			"primitives": [
				{
					"attributes": {
						"POSITION": 26,
						"NORMAL": 27,
						"TANGENT": 28
					},
					"indices": 29,
					"material": 6,
					"mode": 4
				}
			]
		},
		{
			"name": "mesh_Civic_bodydetachobj3_23940Civic_bodydetachobj3",
			"primitives": [
				{
					"attributes": {
						"POSITION": 30,
						"NORMAL": 31,
						"TANGENT": 32
					},
					"indices": 33,
					"material": 5,
					"mode": 4
				}
			]
		},
		{
			"name": "mesh_Civic_bodydetachobj7_23948Civic_bodydetachobj7",
			"primitives": [
				{
					"attributes": {
						"POSITION": 34,
						"NORMAL": 35,
						"TEXCOORD_0": 36,
						"TANGENT": 37
					},
					"indices": 38,
					"material": 1,
					"mode": 4
				}
			]
		},
		{
			"name": "mesh_Civic_bodydetachobj1_23936Civic_bodydetachobj1",
			"primitives": [
				{
					"attributes": {
						"POSITION": 39,
						"NORMAL": 40,
						"TANGENT": 41
					},
					"indices": 42,
					"material": 7,
					"mode": 4
				}
			]
		}
	],
	"nodes": [
		{
			"name": "UnityGlTF_root",
			"children": [
				7
			]
		},
		{
			"name": "node_Civic_bodydetachobj5_-233286",
			"mesh": 0,
			"translation": [ 1.241908E-07, 1.192093E-07, -0.1206621],
			"scale": [ 4.783996, 4.783996, 4.783996]
		},
		{
			"name": "node_Civic_bodydetachobj6_-233288",
			"mesh": 1,
			"translation": [ 1.241908E-07, 1.192093E-07, -0.1206621],
			"scale": [ 4.783996, 4.783996, 4.783996]
		},
		{
			"name": "node_Civic_bodydetachobj8_-233292",
			"mesh": 2,
			"translation": [ -0.0001161397, 2.195997, 0.03718626],
			"scale": [ 4.783996, 4.783996, 4.783996]
		},
		{
			"name": "node_Civic_bodydetachobj4_-233284",
			"mesh": 3,
			"translation": [ 1.241908E-07, 1.192093E-07, -0.1206621],
			"scale": [ 4.783996, 4.783996, 4.783996]
		},
		{
			"name": "node_Civic_bodydetachobj9_-233294",
			"mesh": 4,
			"translation": [ 1.241908E-07, 1.192093E-07, -0.1206621],
			"scale": [ 4.783996, 4.783996, 4.783996]
		},
		{
			"name": "node_Civic_bodydetachobj2_-233280",
			"mesh": 5,
			"translation": [ 1.241908E-07, 1.192093E-07, -0.1206621],
			"scale": [ 4.783996, 4.783996, 4.783996]
		},
		{
			"name": "node_3 (1)_-233274",
			"children": [
				11,
				6,
				9,
				4,
				1,
				2,
				10,
				3,
				5,
				8
			],
			"matrix": [1, 0, 0, 0, 0, -1.192093E-07, 1, 0, 0, -1, -1.192093E-07, 0, -1.490116E-07, 0.7255034, -1.192093E-07, 1]
		},
		{
			"name": "node_Civic_bodydetachobj10_-233296",
			"mesh": 6,
			"translation": [ 1.241908E-07, 1.192093E-07, -0.1206621],
			"scale": [ 4.783996, 4.783996, 4.783996]
		},
		{
			"name": "node_Civic_bodydetachobj3_-233282",
			"mesh": 7,
			"translation": [ 1.241908E-07, 1.192093E-07, -0.1206621],
			"scale": [ 4.783996, 4.783996, 4.783996]
		},
		{
			"name": "node_Civic_bodydetachobj7_-233290",
			"mesh": 8,
			"translation": [ 1.241908E-07, 1.192093E-07, -0.1206621],
			"scale": [ 4.783996, 4.783996, 4.783996]
		},
		{
			"name": "node_Civic_bodydetachobj1_-233278",
			"mesh": 9,
			"translation": [ 1.241908E-07, 1.192093E-07, -0.1206621],
			"scale": [ 4.783996, 4.783996, 4.783996]
		}
	],
	"samplers": [
		{
			"magFilter": 9729,
			"minFilter": 9985,
			"wrapS": 10497,
			"wrapT": 10497
		}
	],
	"scenes": [
		{
			"name":"defaultScene",
			"nodes": [
				0
			]
		}
	],
	"scene": 0,
	"textures": [
		{
			"sampler": 0,
			"source": 0
		},
		{
			"sampler": 0,
			"source": 1
		},
		{
			"sampler": 0,
			"source": 2
		},
		{
			"sampler": 0,
			"source": 3
		},
		{
			"sampler": 0,
			"source": 4
		},
		{
			"sampler": 0,
			"source": 5
		}
	]
}