{
	"asset": {
		"generator": "Unity 5.6.3f1",
		"extras": {
			"exporterVersion" : "2.2.1"
		},
		"version": "2.0"
	},
	"accessors": [
		{
			"bufferView": 2,
			"byteOffset": 0,
			"componentType": 5126,
			"count": 55802,
			"max": [ 0.03447947, 0.03447941, 0.0450952 ],
			"min": [ -0.03447937, -0.03447941, -0.0450952 ],
			"type": "VEC3"
		},
		{
			"bufferView": 2,
			"byteOffset": 669624,
			"componentType": 5126,
			"count": 55802,
			"max": [ 1, 1, 1 ],
			"min": [ -1, -1, -1 ],
			"type": "VEC3"
		},
		{
			"bufferView": 1,
			"byteOffset": 0,
			"componentType": 5126,
			"count": 55802,
			"max": [ 6.182586E+07, 5.305008E+07 ],
			"min": [ -6.869782E+07, -5.894664E+07 ],
			"type": "VEC2"
		},
		{
			"bufferView": 3,
			"byteOffset": 0,
			"componentType": 5126,
			"count": 55802,
			"max": [ 1, 1, 1, 1 ],
			"min": [ -1, -1, -1, -1 ],
			"type": "VEC4"
		},
		{
			"bufferView": 0,
			"byteOffset": 0,
			"componentType": 5123,
			"count": 78432,
			"max": [ 36226 ],
			"min": [ 0 ],
			"type": "SCALAR"
		},
		{
			"bufferView": 0,
			"byteOffset": 156864,
			"componentType": 5123,
			"count": 468,
			"max": [ 36372 ],
			"min": [ 36227 ],
			"type": "SCALAR"
		},
		{
			"bufferView": 0,
			"byteOffset": 157800,
			"componentType": 5123,
			"count": 84,
			"max": [ 36428 ],
			"min": [ 36373 ],
			"type": "SCALAR"
		},
		{
			"bufferView": 0,
			"byteOffset": 157968,
			"componentType": 5123,
			"count": 18132,
			"max": [ 43214 ],
			"min": [ 36429 ],
			"type": "SCALAR"
		},
		{
			"bufferView": 0,
			"byteOffset": 194232,
			"componentType": 5123,
			"count": 60,
			"max": [ 43254 ],
			"min": [ 43215 ],
			"type": "SCALAR"
		},
		{
			"bufferView": 0,
			"byteOffset": 194352,
			"componentType": 5123,
			"count": 192,
			"max": [ 43350 ],
			"min": [ 43255 ],
			"type": "SCALAR"
		},
		{
			"bufferView": 0,
			"byteOffset": 194736,
			"componentType": 5123,
			"count": 26880,
			"max": [ 49726 ],
			"min": [ 43351 ],
			"type": "SCALAR"
		},
		{
			"bufferView": 0,
			"byteOffset": 248496,
			"componentType": 5123,
			"count": 180,
			"max": [ 49846 ],
			"min": [ 49727 ],
			"type": "SCALAR"
		},
		{
			"bufferView": 0,
			"byteOffset": 248856,
			"componentType": 5123,
			"count": 1500,
			"max": [ 50414 ],
			"min": [ 49847 ],
			"type": "SCALAR"
		},
		{
			"bufferView": 0,
			"byteOffset": 251856,
			"componentType": 5123,
			"count": 324,
			"max": [ 50566 ],
			"min": [ 50415 ],
			"type": "SCALAR"
		},
		{
			"bufferView": 0,
			"byteOffset": 252504,
			"componentType": 5123,
			"count": 7710,
			"max": [ 53481 ],
			"min": [ 50567 ],
			"type": "SCALAR"
		},
		{
			"bufferView": 0,
			"byteOffset": 267924,
			"componentType": 5123,
			"count": 10350,
			"max": [ 55652 ],
			"min": [ 53482 ],
			"type": "SCALAR"
		},
		{
			"bufferView": 0,
			"byteOffset": 288624,
			"componentType": 5123,
			"count": 6,
			"max": [ 55656 ],
			"min": [ 55653 ],
			"type": "SCALAR"
		},
		{
			"bufferView": 0,
			"byteOffset": 288636,
			"componentType": 5123,
			"count": 96,
			"max": [ 55704 ],
			"min": [ 55657 ],
			"type": "SCALAR"
		},
		{
			"bufferView": 0,
			"byteOffset": 288828,
			"componentType": 5123,
			"count": 96,
			"max": [ 55752 ],
			"min": [ 55705 ],
			"type": "SCALAR"
		},
		{
			"bufferView": 0,
			"byteOffset": 289020,
			"componentType": 5123,
			"count": 72,
			"max": [ 55792 ],
			"min": [ 55753 ],
			"type": "SCALAR"
		},
		{
			"bufferView": 0,
			"byteOffset": 289164,
			"componentType": 5123,
			"count": 9,
			"max": [ 55801 ],
			"min": [ 55793 ],
			"type": "SCALAR"
		}
	],
	"buffers": [
		{
			"byteLength": 2967678,
			"uri": "tower.bin"
		}
	],
	"bufferViews": [
		{
			"buffer": 0,
			"byteLength": 289182,
			"target": 34963,
			"byteOffset": 2678496
		},
		{
			"buffer": 0,
			"byteLength": 446416,
			"target": 34962,
			"byteStride": 8,
			"byteOffset": 0
		},
		{
			"buffer": 0,
			"byteLength": 1339248,
			"target": 34962,
			"byteStride": 12,
			"byteOffset": 446416
		},
		{
			"buffer": 0,
			"byteLength": 892832,
			"target": 34962,
			"byteStride": 16,
			"byteOffset": 1785664
		}
	],
	"images": [
		{
			"uri": "Assets/FBX/tower.fbm/WP019.jpg"
		},
		{
			"uri": "Assets/FBX/tower.fbm/DGZHU COPY.jpg"
		},
		{
			"uri": "Assets/FBX/tower.fbm/EFTOP.jpg"
		},
		{
			"uri": "Assets/FBX/tower.fbm/柱子.jpg"
		},
		{
			"uri": "Assets/FBX/tower.fbm/j13.jpg"
		},
		{
			"uri": "Assets/FBX/tower.fbm/zl222.jpg"
		},
		{
			"uri": "Assets/FBX/tower.fbm/zl11.jpg"
		},
		{
			"uri": "Assets/FBX/tower.fbm/DSC01756.jpg"
		},
		{
			"uri": "Assets/FBX/tower.fbm/DSC017561.jpg"
		},
		{
			"uri": "Assets/FBX/tower.fbm/0001 拷贝.jpg"
		},
		{
			"uri": "Assets/FBX/tower.fbm/N3.png"
		},
		{
			"uri": "Assets/FBX/tower.fbm/ROSEWOOD.jpg"
		},
		{
			"uri": "Assets/FBX/tower.fbm/LANGAN.png"
		},
		{
			"uri": "Assets/FBX/tower.fbm/YX-ye.jpg"
		}
	],
	"materials": [
		{
			"pbrMetallicRoughness": {
				"baseColorTexture" : {
					"index" : 0,
					"texCoord" : 0
				},
				"baseColorFactor": [0.5882353, 0.5882353, 0.5882353, 1],
				"metallicFactor": 0,
				"roughnessFactor": 0.5
			},
			"emissiveFactor": [0, 0, 0],
			"doubleSided": false,
			"name": "WP019"
		},
		{
			"pbrMetallicRoughness": {
				"baseColorTexture" : {
					"index" : 1,
					"texCoord" : 0
				},
				"baseColorFactor": [0.4196079, 0.2156863, 0, 1],
				"metallicFactor": 0,
				"roughnessFactor": 0.5
			},
			"emissiveFactor": [0, 0, 0],
			"doubleSided": false,
			"name": "DGZHU COPY"
		},
		{
			"pbrMetallicRoughness": {
				"baseColorTexture" : {
					"index" : 2,
					"texCoord" : 0
				},
				"baseColorFactor": [0.588, 0.588, 0.588, 1],
				"metallicFactor": 0,
				"roughnessFactor": 0.5
			},
			"emissiveFactor": [0, 0, 0],
			"doubleSided": false,
			"name": "EFTOP"
		},
		{
			"pbrMetallicRoughness": {
				"baseColorTexture" : {
					"index" : 3,
					"texCoord" : 0
				},
				"baseColorFactor": [0.588, 0.588, 0.588, 1],
				"metallicFactor": 0,
				"roughnessFactor": 0.5
			},
			"emissiveFactor": [0, 0, 0],
			"doubleSided": false,
			"name": ""
		},
		{
			"pbrMetallicRoughness": {
				"baseColorTexture" : {
					"index" : 4,
					"texCoord" : 0
				},
				"baseColorFactor": [0.588, 0.588, 0.588, 1],
				"metallicFactor": 0,
				"roughnessFactor": 0.5
			},
			"emissiveFactor": [0, 0, 0],
			"doubleSided": false,
			"name": "j13"
		},
		{
			"pbrMetallicRoughness": {
				"baseColorTexture" : {
					"index" : 5,
					"texCoord" : 0
				},
				"baseColorFactor": [0.588, 0.588, 0.588, 1],
				"metallicFactor": 0,
				"roughnessFactor": 0.5
			},
			"emissiveFactor": [0, 0, 0],
			"doubleSided": false,
			"name": "zl222"
		},
		{
			"pbrMetallicRoughness": {
				"baseColorTexture" : {
					"index" : 6,
					"texCoord" : 0
				},
				"baseColorFactor": [0.588, 0.588, 0.588, 1],
				"metallicFactor": 0,
				"roughnessFactor": 0.5
			},
			"emissiveFactor": [0, 0, 0],
			"doubleSided": false,
			"name": "zl11"
		},
		{
			"pbrMetallicRoughness": {
				"baseColorFactor": [0.8235295, 0.8235295, 0.8235295, 1],
				"metallicFactor": 0,
				"roughnessFactor": 0.5
			},
			"emissiveFactor": [0, 0, 0],
			"doubleSided": false,
			"name": "7 - Default"
		},
		{
			"pbrMetallicRoughness": {
				"baseColorTexture" : {
					"index" : 7,
					"texCoord" : 0
				},
				"baseColorFactor": [0.588, 0.588, 0.588, 1],
				"metallicFactor": 0,
				"roughnessFactor": 0.5
			},
			"emissiveFactor": [0, 0, 0],
			"doubleSided": false,
			"name": "DSC01756"
		},
		{
			"pbrMetallicRoughness": {
				"baseColorTexture" : {
					"index" : 8,
					"texCoord" : 0
				},
				"baseColorFactor": [0.588, 0.588, 0.588, 1],
				"metallicFactor": 0,
				"roughnessFactor": 0.5
			},
			"emissiveFactor": [0, 0, 0],
			"doubleSided": false,
			"name": "DSC017561"
		},
		{
			"pbrMetallicRoughness": {
				"baseColorTexture" : {
					"index" : 9,
					"texCoord" : 0
				},
				"baseColorFactor": [0.588, 0.588, 0.588, 1],
				"metallicFactor": 0,
				"roughnessFactor": 0.5
			},
			"emissiveFactor": [0, 0, 0],
			"doubleSided": false,
			"name": "0001 "
		},
		{
			"pbrMetallicRoughness": {
				"baseColorTexture" : {
					"index" : 10,
					"texCoord" : 0
				},
				"baseColorFactor": [0.5882353, 0.5882353, 0.5882353, 1],
				"metallicFactor": 0,
				"roughnessFactor": 0.5
			},
			"alphaMode": "BLEND",
			"alphaCutoff": 0.5,
			"emissiveFactor": [0, 0, 0],
			"doubleSided": false,
			"name": "N3"
		},
		{
			"pbrMetallicRoughness": {
				"baseColorTexture" : {
					"index" : 11,
					"texCoord" : 0
				},
				"baseColorFactor": [0.5882353, 0.5882353, 0.5882353, 1],
				"metallicFactor": 0,
				"roughnessFactor": 0.5
			},
			"emissiveFactor": [0, 0, 0],
			"doubleSided": false,
			"name": "ROSEWOOD"
		},
		{
			"pbrMetallicRoughness": {
				"baseColorTexture" : {
					"index" : 12,
					"texCoord" : 0
				},
				"baseColorFactor": [0.5882353, 0.5882353, 0.5882353, 1],
				"metallicFactor": 0,
				"roughnessFactor": 0.5
			},
			"alphaMode": "BLEND",
			"alphaCutoff": 0.5,
			"emissiveFactor": [0, 0, 0],
			"doubleSided": false,
			"name": "LANGAN"
		},
		{
			"pbrMetallicRoughness": {
				"baseColorTexture" : {
					"index" : 13,
					"texCoord" : 0
				},
				"baseColorFactor": [0.5882353, 0.5882353, 0.5882353, 1],
				"metallicFactor": 0,
				"roughnessFactor": 0.5
			},
			"emissiveFactor": [0, 0, 0],
			"doubleSided": false,
			"name": "YX-ye"
		}
	],
	"meshes": [
		{
			"name": "mesh_Object50_17402Object50",
			"primitives": [
				{
					"attributes": {
						"POSITION": 0,
						"NORMAL": 1,
						"TEXCOORD_0": 2,
						"TANGENT": 3
					},
					"indices": 4,
					"material": 0,
					"mode": 4
				},
				{
					"attributes": {
						"POSITION": 0,
						"NORMAL": 1,
						"TEXCOORD_0": 2,
						"TANGENT": 3
					},
					"indices": 5,
					"material": 1,
					"mode": 4
				},
				{
					"attributes": {
						"POSITION": 0,
						"NORMAL": 1,
						"TEXCOORD_0": 2,
						"TANGENT": 3
					},
					"indices": 6,
					"material": 2,
					"mode": 4
				},
				{
					"attributes": {
						"POSITION": 0,
						"NORMAL": 1,
						"TEXCOORD_0": 2,
						"TANGENT": 3
					},
					"indices": 7,
					"material": 3,
					"mode": 4
				},
				{
					"attributes": {
						"POSITION": 0,
						"NORMAL": 1,
						"TEXCOORD_0": 2,
						"TANGENT": 3
					},
					"indices": 8,
					"material": 2,
					"mode": 4
				},
				{
					"attributes": {
						"POSITION": 0,
						"NORMAL": 1,
						"TEXCOORD_0": 2,
						"TANGENT": 3
					},
					"indices": 9,
					"material": 4,
					"mode": 4
				},
				{
					"attributes": {
						"POSITION": 0,
						"NORMAL": 1,
						"TEXCOORD_0": 2,
						"TANGENT": 3
					},
					"indices": 10,
					"material": 5,
					"mode": 4
				},
				{
					"attributes": {
						"POSITION": 0,
						"NORMAL": 1,
						"TEXCOORD_0": 2,
						"TANGENT": 3
					},
					"indices": 11,
					"material": 6,
					"mode": 4
				},
				{
					"attributes": {
						"POSITION": 0,
						"NORMAL": 1,
						"TEXCOORD_0": 2,
						"TANGENT": 3
					},
					"indices": 12,
					"material": 7,
					"mode": 4
				},
				{
					"attributes": {
						"POSITION": 0,
						"NORMAL": 1,
						"TEXCOORD_0": 2,
						"TANGENT": 3
					},
					"indices": 13,
					"material": 8,
					"mode": 4
				},
				{
					"attributes": {
						"POSITION": 0,
						"NORMAL": 1,
						"TEXCOORD_0": 2,
						"TANGENT": 3
					},
					"indices": 14,
					"material": 9,
					"mode": 4
				},
				{
					"attributes": {
						"POSITION": 0,
						"NORMAL": 1,
						"TEXCOORD_0": 2,
						"TANGENT": 3
					},
					"indices": 15,
					"material": 0,
					"mode": 4
				},
				{
					"attributes": {
						"POSITION": 0,
						"NORMAL": 1,
						"TEXCOORD_0": 2,
						"TANGENT": 3
					},
					"indices": 16,
					"material": 10,
					"mode": 4
				},
				{
					"attributes": {
						"POSITION": 0,
						"NORMAL": 1,
						"TEXCOORD_0": 2,
						"TANGENT": 3
					},
					"indices": 17,
					"material": 11,
					"mode": 4
				},
				{
					"attributes": {
						"POSITION": 0,
						"NORMAL": 1,
						"TEXCOORD_0": 2,
						"TANGENT": 3
					},
					"indices": 18,
					"material": 12,
					"mode": 4
				},
				{
					"attributes": {
						"POSITION": 0,
						"NORMAL": 1,
						"TEXCOORD_0": 2,
						"TANGENT": 3
					},
					"indices": 19,
					"material": 13,
					"mode": 4
				},
				{
					"attributes": {
						"POSITION": 0,
						"NORMAL": 1,
						"TEXCOORD_0": 2,
						"TANGENT": 3
					},
					"indices": 20,
					"material": 14,
					"mode": 4
				}
			]
		}
	],
	"nodes": [
		{
			"name": "UnityGlTF_root",
			"children": [
				3
			]
		},
		{
			"name": "node_Object50_-19046",
			"mesh": 0,
			"translation": [ -1046.377, 22.34219, -3.281298],
			"scale": [ 514.7999, 514.7999, 399.9999],
			"rotation": [-0.7071068, 0, 0, -0.7071068]
		},
		{
			"name": "node_Camera02_-19044",
			"translation": [ 985.6406, 52.30505, -24.17974],
			"rotation": [9.578284E-09, 0.6427877, -1.141495E-08, -0.7660444]
		},
		{
			"name": "node_tower_-19040",
			"children": [
				2,
				1
			],
			"matrix": [1, 0, 0, 0, 0, 1, 0, 0, 0, 0, 1, 0, 0, 0, 0, 1]
		}
	],
	"samplers": [
		{
			"magFilter": 9729,
			"minFilter": 9985,
			"wrapS": 10497,
			"wrapT": 10497
		}
	],
	"scenes": [
		{
			"name":"defaultScene",
			"nodes": [
				0
			]
		}
	],
	"scene": 0,
	"textures": [
		{
			"sampler": 0,
			"source": 0
		},
		{
			"sampler": 0,
			"source": 1
		},
		{
			"sampler": 0,
			"source": 2
		},
		{
			"sampler": 0,
			"source": 3
		},
		{
			"sampler": 0,
			"source": 4
		},
		{
			"sampler": 0,
			"source": 5
		},
		{
			"sampler": 0,
			"source": 6
		},
		{
			"sampler": 0,
			"source": 7
		},
		{
			"sampler": 0,
			"source": 8
		},
		{
			"sampler": 0,
			"source": 9
		},
		{
			"sampler": 0,
			"source": 10
		},
		{
			"sampler": 0,
			"source": 11
		},
		{
			"sampler": 0,
			"source": 12
		},
		{
			"sampler": 0,
			"source": 13
		}
	]
}