{
	"asset": {
		"generator": "Unity 5.6.3f1",
		"extras": {
			"exporterVersion" : "2.2.1"
		},
		"version": "2.0"
	},
	"accessors": [
		{
			"bufferView": 2,
			"byteOffset": 0,
			"componentType": 5126,
			"count": 333,
			"max": [ 0.3020677, 0.6910819, 0.2229569 ],
			"min": [ -0.3020776, -0.6946623, 0.04891367 ],
			"type": "VEC3"
		},
		{
			"bufferView": 2,
			"byteOffset": 3996,
			"componentType": 5126,
			"count": 333,
			"max": [ 1, 0.9999928, 1 ],
			"min": [ -1, -0.9981065, 0.0001862181 ],
			"type": "VEC3"
		},
		{
			"bufferView": 3,
			"byteOffset": 0,
			"componentType": 5126,
			"count": 333,
			"max": [ 1, 0, 0, 1 ],
			"min": [ 1, 0, 0, 1 ],
			"type": "VEC4"
		},
		{
			"bufferView": 0,
			"byteOffset": 0,
			"componentType": 5123,
			"count": 996,
			"max": [ 332 ],
			"min": [ 0 ],
			"type": "SCALAR"
		},
		{
			"bufferView": 2,
			"byteOffset": 7992,
			"componentType": 5126,
			"count": 42,
			"max": [ -0.1752755, 0.5946445, 0.138197 ],
			"min": [ -0.2911307, -0.6760238, -0.0563382 ],
			"type": "VEC3"
		},
		{
			"bufferView": 2,
			"byteOffset": 8496,
			"componentType": 5126,
			"count": 42,
			"max": [ -0.09386102, 0.9500536, 0.1427178 ],
			"min": [ -0.9856632, -0.9188944, -0.6022091 ],
			"type": "VEC3"
		},
		{
			"bufferView": 1,
			"byteOffset": 0,
			"componentType": 5126,
			"count": 42,
			"max": [ 1, 1 ],
			"min": [ 0, 0 ],
			"type": "VEC2"
		},
		{
			"bufferView": 3,
			"byteOffset": 5328,
			"componentType": 5126,
			"count": 42,
			"max": [ 0.9240499, 0.9376116, 0.9550413, 1 ],
			"min": [ -0.6409276, -0.4335683, -0.9162013, 1 ],
			"type": "VEC4"
		},
		{
			"bufferView": 0,
			"byteOffset": 1992,
			"componentType": 5123,
			"count": 42,
			"max": [ 41 ],
			"min": [ 0 ],
			"type": "SCALAR"
		},
		{
			"bufferView": 2,
			"byteOffset": 9000,
			"componentType": 5126,
			"count": 184,
			"max": [ 0.2690482, 0.3399748, -0.03847829 ],
			"min": [ -0.2690493, -0.6681097, -0.1981456 ],
			"type": "VEC3"
		},
		{
			"bufferView": 2,
			"byteOffset": 11208,
			"componentType": 5126,
			"count": 184,
			"max": [ 0.9592966, 0.6273603, -0.06787831 ],
			"min": [ -0.9910008, -0.7936517, -0.8499466 ],
			"type": "VEC3"
		},
		{
			"bufferView": 3,
			"byteOffset": 6000,
			"componentType": 5126,
			"count": 184,
			"max": [ 1, 0, 0, 1 ],
			"min": [ 1, 0, 0, 1 ],
			"type": "VEC4"
		},
		{
			"bufferView": 0,
			"byteOffset": 2076,
			"componentType": 5123,
			"count": 606,
			"max": [ 183 ],
			"min": [ 0 ],
			"type": "SCALAR"
		},
		{
			"bufferView": 2,
			"byteOffset": 13416,
			"componentType": 5126,
			"count": 2297,
			"max": [ 0.3020678, 0.7255691, 0.2229569 ],
			"min": [ -0.3020776, -0.725569, -0.222957 ],
			"type": "VEC3"
		},
		{
			"bufferView": 2,
			"byteOffset": 40980,
			"componentType": 5126,
			"count": 2297,
			"max": [ 0.9999983, 0.9988041, 1 ],
			"min": [ -0.9999883, -0.9999964, -1 ],
			"type": "VEC3"
		},
		{
			"bufferView": 3,
			"byteOffset": 8944,
			"componentType": 5126,
			"count": 2297,
			"max": [ 1, 0, 0, 1 ],
			"min": [ 1, 0, 0, 1 ],
			"type": "VEC4"
		},
		{
			"bufferView": 0,
			"byteOffset": 3288,
			"componentType": 5123,
			"count": 8508,
			"max": [ 2296 ],
			"min": [ 0 ],
			"type": "SCALAR"
		},
		{
			"bufferView": 2,
			"byteOffset": 68544,
			"componentType": 5126,
			"count": 44,
			"max": [ 0.2632202, -0.5802909, 0.02436402 ],
			"min": [ -0.2631786, -0.6818906, -0.1923787 ],
			"type": "VEC3"
		},
		{
			"bufferView": 2,
			"byteOffset": 69072,
			"componentType": 5126,
			"count": 44,
			"max": [ 0.9480041, -0.2215131, 0.01628689 ],
			"min": [ -0.9532748, -0.9993978, -0.2656716 ],
			"type": "VEC3"
		},
		{
			"bufferView": 1,
			"byteOffset": 336,
			"componentType": 5126,
			"count": 44,
			"max": [ 2.193691, 3.968629 ],
			"min": [ -1.193691, -2.968629 ],
			"type": "VEC2"
		},
		{
			"bufferView": 3,
			"byteOffset": 45696,
			"componentType": 5126,
			"count": 44,
			"max": [ 1, 0.973257, 0.0004498792, -1 ],
			"min": [ 0.2297191, -0.9722745, -0.000422444, -1 ],
			"type": "VEC4"
		},
		{
			"bufferView": 0,
			"byteOffset": 20304,
			"componentType": 5123,
			"count": 138,
			"max": [ 43 ],
			"min": [ 0 ],
			"type": "SCALAR"
		},
		{
			"bufferView": 2,
			"byteOffset": 69600,
			"componentType": 5126,
			"count": 27,
			"max": [ 0.2911105, 0.5946596, 0.138197 ],
			"min": [ 0.1753199, -0.676015, -0.05633817 ],
			"type": "VEC3"
		},
		{
			"bufferView": 2,
			"byteOffset": 69924,
			"componentType": 5126,
			"count": 27,
			"max": [ 0.9878467, 0.9500998, 0.1382687 ],
			"min": [ 0.05084191, -0.9448022, -0.6004841 ],
			"type": "VEC3"
		},
		{
			"bufferView": 1,
			"byteOffset": 688,
			"componentType": 5126,
			"count": 27,
			"max": [ 2.95437, 0.9601142 ],
			"min": [ -1.940961, 0.0398857 ],
			"type": "VEC2"
		},
		{
			"bufferView": 3,
			"byteOffset": 46400,
			"componentType": 5126,
			"count": 27,
			"max": [ 0.9984283, 0.992146, 0.09396488, -1 ],
			"min": [ -0.9585563, 0.05604354, -0.1094886, -1 ],
			"type": "VEC4"
		},
		{
			"bufferView": 0,
			"byteOffset": 20580,
			"componentType": 5123,
			"count": 42,
			"max": [ 26 ],
			"min": [ 0 ],
			"type": "SCALAR"
		},
		{
			"bufferView": 2,
			"byteOffset": 70248,
			"componentType": 5126,
			"count": 1942,
			"max": [ 0.3403383, 0.7093129, 0.2072277 ],
			"min": [ -0.3403383, -0.7085758, -0.2134146 ],
			"type": "VEC3"
		},
		{
			"bufferView": 2,
			"byteOffset": 93552,
			"componentType": 5126,
			"count": 1942,
			"max": [ 0.9999832, 0.9998424, 1 ],
			"min": [ -0.9999832, -1, -1 ],
			"type": "VEC3"
		},
		{
			"bufferView": 3,
			"byteOffset": 46832,
			"componentType": 5126,
			"count": 1942,
			"max": [ 1, 0, 0, 1 ],
			"min": [ 1, 0, 0, 1 ],
			"type": "VEC4"
		},
		{
			"bufferView": 0,
			"byteOffset": 20664,
			"componentType": 5123,
			"count": 5280,
			"max": [ 1941 ],
			"min": [ 0 ],
			"type": "SCALAR"
		},
		{
			"bufferView": 2,
			"byteOffset": 116856,
			"componentType": 5126,
			"count": 197,
			"max": [ 0.01918302, 0.698773, 0.07389161 ],
			"min": [ -0.01921037, 0.6764151, 0.03331687 ],
			"type": "VEC3"
		},
		{
			"bufferView": 2,
			"byteOffset": 119220,
			"componentType": 5126,
			"count": 197,
			"max": [ 1, 0.9849607, 0.9849455 ],
			"min": [ -1, -0.9849522, -0.9849461 ],
			"type": "VEC3"
		},
		{
			"bufferView": 3,
			"byteOffset": 77904,
			"componentType": 5126,
			"count": 197,
			"max": [ 1, 0, 0, 1 ],
			"min": [ 1, 0, 0, 1 ],
			"type": "VEC4"
		},
		{
			"bufferView": 0,
			"byteOffset": 31224,
			"componentType": 5123,
			"count": 546,
			"max": [ 196 ],
			"min": [ 0 ],
			"type": "SCALAR"
		},
		{
			"bufferView": 2,
			"byteOffset": 121584,
			"componentType": 5126,
			"count": 2280,
			"max": [ 0.2890095, 0.5300632, 0.28656 ],
			"min": [ -0.2767408, -0.5720109, 0.07947456 ],
			"type": "VEC3"
		},
		{
			"bufferView": 2,
			"byteOffset": 148944,
			"componentType": 5126,
			"count": 2280,
			"max": [ 0.9997869, 1, 1 ],
			"min": [ -0.9997869, -1, -1 ],
			"type": "VEC3"
		},
		{
			"bufferView": 1,
			"byteOffset": 904,
			"componentType": 5126,
			"count": 2280,
			"max": [ 2.722166, 9.458006 ],
			"min": [ -1.722167, -8.458006 ],
			"type": "VEC2"
		},
		{
			"bufferView": 3,
			"byteOffset": 81056,
			"componentType": 5126,
			"count": 2280,
			"max": [ 1, 0.05677893, 1, 1 ],
			"min": [ -0.05150401, -0.05677939, -1, -1 ],
			"type": "VEC4"
		},
		{
			"bufferView": 0,
			"byteOffset": 32316,
			"componentType": 5123,
			"count": 9216,
			"max": [ 2279 ],
			"min": [ 0 ],
			"type": "SCALAR"
		},
		{
			"bufferView": 2,
			"byteOffset": 176304,
			"componentType": 5126,
			"count": 3054,
			"max": [ 0.2900609, 0.4973826, 0.2538785 ],
			"min": [ -0.277792, -0.5393301, 0.112156 ],
			"type": "VEC3"
		},
		{
			"bufferView": 2,
			"byteOffset": 212952,
			"componentType": 5126,
			"count": 3054,
			"max": [ 1, 0.9553792, 0.955319 ],
			"min": [ -1, -0.9553542, -0.9553372 ],
			"type": "VEC3"
		},
		{
			"bufferView": 3,
			"byteOffset": 117536,
			"componentType": 5126,
			"count": 3054,
			"max": [ 1, 0, 0, 1 ],
			"min": [ 1, 0, 0, 1 ],
			"type": "VEC4"
		},
		{
			"bufferView": 0,
			"byteOffset": 50748,
			"componentType": 5123,
			"count": 11136,
			"max": [ 3053 ],
			"min": [ 0 ],
			"type": "SCALAR"
		},
		{
			"bufferView": 2,
			"byteOffset": 249600,
			"componentType": 5126,
			"count": 670,
			"max": [ 0.2499112, 0.7125285, 0.135455 ],
			"min": [ -0.2499382, 0.6340265, 0.02366178 ],
			"type": "VEC3"
		},
		{
			"bufferView": 2,
			"byteOffset": 257640,
			"componentType": 5126,
			"count": 670,
			"max": [ 0.9976157, 0.9978624, 1 ],
			"min": [ -0.9976137, -0.9505159, -0.999675 ],
			"type": "VEC3"
		},
		{
			"bufferView": 3,
			"byteOffset": 166400,
			"componentType": 5126,
			"count": 670,
			"max": [ 1, 0, 0, 1 ],
			"min": [ 1, 0, 0, 1 ],
			"type": "VEC4"
		},
		{
			"bufferView": 0,
			"byteOffset": 73020,
			"componentType": 5123,
			"count": 3486,
			"max": [ 669 ],
			"min": [ 0 ],
			"type": "SCALAR"
		}
	],
	"buffers": [
		{
			"byteLength": 541936,
			"uri": "car.bin"
		}
	],
	"bufferViews": [
		{
			"buffer": 0,
			"byteLength": 79992,
			"target": 34963,
			"byteOffset": 461944
		},
		{
			"buffer": 0,
			"byteLength": 19144,
			"target": 34962,
			"byteStride": 8,
			"byteOffset": 0
		},
		{
			"buffer": 0,
			"byteLength": 265680,
			"target": 34962,
			"byteStride": 12,
			"byteOffset": 19144
		},
		{
			"buffer": 0,
			"byteLength": 177120,
			"target": 34962,
			"byteStride": 16,
			"byteOffset": 284824
		}
	],
	"images": [
		{
			"uri": "Assets/car/小轿车.fbm/che11.jpg"
		},
		{
			"uri": "Assets/car/小轿车.fbm/Archmodels55_light_orange.jpg"
		},
		{
			"uri": "Assets/car/小轿车.fbm/che6.png"
		},
		{
			"uri": "Assets/car/小轿车.fbm/che1.jpg"
		},
		{
			"uri": "Assets/car/小轿车.fbm/Archmodels55_light_red.jpg"
		},
		{
			"uri": "Assets/car/小轿车.fbm/che7.jpg"
		},
		{
			"uri": "Assets/car/小轿车.fbm/Archmodels55_tyre.jpg"
		},
		{
			"uri": "Assets/car/小轿车.fbm/che14.jpg"
		}
	],
	"materials": [
		{
			"pbrMetallicRoughness": {
				"baseColorTexture" : {
					"index" : 0,
					"texCoord" : 0
				},
				"baseColorFactor": [0.09803922, 0.09803922, 0.09803922, 1],
				"metallicFactor": 0,
				"roughnessFactor": 0.5
			},
			"emissiveFactor": [0, 0, 0],
			"doubleSided": false,
			"name": "che11"
		},
		{
			"pbrMetallicRoughness": {
				"baseColorTexture" : {
					"index" : 1,
					"texCoord" : 0
				},
				"baseColorFactor": [0.627451, 0.2705882, 0.09411766, 1],
				"metallicFactor": 0,
				"roughnessFactor": 0.5
			},
			"emissiveFactor": [0, 0, 0],
			"doubleSided": false,
			"name": "Archmodels55_light_orange"
		},
		{
			"pbrMetallicRoughness": {
				"baseColorTexture" : {
					"index" : 2,
					"texCoord" : 0
				},
				"baseColorFactor": [0.2156863, 0.2156863, 0.2156863, 1],
				"metallicFactor": 0,
				"roughnessFactor": 0.5
			},
			"alphaMode": "BLEND",
			"alphaCutoff": 0.5,
			"emissiveFactor": [0, 0, 0],
			"doubleSided": false,
			"name": "che6"
		},
		{
			"pbrMetallicRoughness": {
				"baseColorTexture" : {
					"index" : 3,
					"texCoord" : 0
				},
				"baseColorFactor": [0.5176471, 0.5019608, 0.8588236, 1],
				"metallicFactor": 0,
				"roughnessFactor": 0.5
			},
			"emissiveFactor": [0, 0, 0],
			"doubleSided": false,
			"name": "che1"
		},
		{
			"pbrMetallicRoughness": {
				"baseColorTexture" : {
					"index" : 4,
					"texCoord" : 0
				},
				"baseColorFactor": [0.627451, 0.0627451, 0.0627451, 1],
				"metallicFactor": 0,
				"roughnessFactor": 0.5
			},
			"emissiveFactor": [0, 0, 0],
			"doubleSided": false,
			"name": "Archmodels55_light_red"
		},
		{
			"pbrMetallicRoughness": {
				"baseColorTexture" : {
					"index" : 5,
					"texCoord" : 0
				},
				"baseColorFactor": [0.588, 0.588, 0.588, 1],
				"metallicFactor": 0,
				"roughnessFactor": 0.5
			},
			"emissiveFactor": [0, 0, 0],
			"doubleSided": false,
			"name": "che7"
		},
		{
			"pbrMetallicRoughness": {
				"baseColorTexture" : {
					"index" : 6,
					"texCoord" : 0
				},
				"baseColorFactor": [0.09803922, 0.09803922, 0.09803922, 1],
				"metallicFactor": 0,
				"roughnessFactor": 0.5
			},
			"emissiveFactor": [0, 0, 0],
			"doubleSided": false,
			"name": "Archmodels55_tyre"
		},
		{
			"pbrMetallicRoughness": {
				"baseColorTexture" : {
					"index" : 7,
					"texCoord" : 0
				},
				"baseColorFactor": [0.9490197, 0.9647059, 0.5607843, 1],
				"metallicFactor": 0,
				"roughnessFactor": 0.5
			},
			"emissiveFactor": [0, 0, 0],
			"doubleSided": false,
			"name": "che14"
		}
	],
	"meshes": [
		{
			"name": "mesh_Car - Volkswagen Golf (1991)_bodydetachobj3_23118Car - Volkswagen Golf (1991)_bodydetachobj3",
			"primitives": [
				{
					"attributes": {
						"POSITION": 0,
						"NORMAL": 1,
						"TANGENT": 2
					},
					"indices": 3,
					"material": 0,
					"mode": 4
				}
			]
		},
		{
			"name": "mesh_Car - Volkswagen Golf (1991)_bodydetachobj7_23126Car - Volkswagen Golf (1991)_bodydetachobj7",
			"primitives": [
				{
					"attributes": {
						"POSITION": 4,
						"NORMAL": 5,
						"TEXCOORD_0": 6,
						"TANGENT": 7
					},
					"indices": 8,
					"material": 1,
					"mode": 4
				}
			]
		},
		{
			"name": "mesh_Car - Volkswagen Golf (1991)_bodydetachobj4_23120Car - Volkswagen Golf (1991)_bodydetachobj4",
			"primitives": [
				{
					"attributes": {
						"POSITION": 9,
						"NORMAL": 10,
						"TANGENT": 11
					},
					"indices": 12,
					"material": 2,
					"mode": 4
				}
			]
		},
		{
			"name": "mesh_Car - Volkswagen Golf (1991)_bodydetachobj1_23114Car - Volkswagen Golf (1991)_bodydetachobj1",
			"primitives": [
				{
					"attributes": {
						"POSITION": 13,
						"NORMAL": 14,
						"TANGENT": 15
					},
					"indices": 16,
					"material": 3,
					"mode": 4
				}
			]
		},
		{
			"name": "mesh_Car - Volkswagen Golf (1991)_bodydetachobj5_23122Car - Volkswagen Golf (1991)_bodydetachobj5",
			"primitives": [
				{
					"attributes": {
						"POSITION": 17,
						"NORMAL": 18,
						"TEXCOORD_0": 19,
						"TANGENT": 20
					},
					"indices": 21,
					"material": 4,
					"mode": 4
				}
			]
		},
		{
			"name": "mesh_Car - Volkswagen Golf (1991)_bodydetachobj6_23124Car - Volkswagen Golf (1991)_bodydetachobj6",
			"primitives": [
				{
					"attributes": {
						"POSITION": 22,
						"NORMAL": 23,
						"TEXCOORD_0": 24,
						"TANGENT": 25
					},
					"indices": 26,
					"material": 1,
					"mode": 4
				}
			]
		},
		{
			"name": "mesh_Car - Volkswagen Golf (1991)_bodydetachobj2_23116Car - Volkswagen Golf (1991)_bodydetachobj2",
			"primitives": [
				{
					"attributes": {
						"POSITION": 27,
						"NORMAL": 28,
						"TANGENT": 29
					},
					"indices": 30,
					"material": 0,
					"mode": 4
				}
			]
		},
		{
			"name": "mesh_Car - Volkswagen Golf (1991)_bodydetachobj9_23130Car - Volkswagen Golf (1991)_bodydetachobj9",
			"primitives": [
				{
					"attributes": {
						"POSITION": 31,
						"NORMAL": 32,
						"TANGENT": 33
					},
					"indices": 34,
					"material": 5,
					"mode": 4
				}
			]
		},
		{
			"name": "mesh_Car - Volkswagen Golf (1991)_bodydetachobj10_23132Car - Volkswagen Golf (1991)_bodydetachobj10",
			"primitives": [
				{
					"attributes": {
						"POSITION": 35,
						"NORMAL": 36,
						"TEXCOORD_0": 37,
						"TANGENT": 38
					},
					"indices": 39,
					"material": 6,
					"mode": 4
				}
			]
		},
		{
			"name": "mesh_Car - Volkswagen Golf (1991)_bodydetachobj11_23134Car - Volkswagen Golf (1991)_bodydetachobj11",
			"primitives": [
				{
					"attributes": {
						"POSITION": 40,
						"NORMAL": 41,
						"TANGENT": 42
					},
					"indices": 43,
					"material": 3,
					"mode": 4
				}
			]
		},
		{
			"name": "mesh_Car - Volkswagen Golf (1991)_bodydetachobj8_23128Car - Volkswagen Golf (1991)_bodydetachobj8",
			"primitives": [
				{
					"attributes": {
						"POSITION": 44,
						"NORMAL": 45,
						"TANGENT": 46
					},
					"indices": 47,
					"material": 7,
					"mode": 4
				}
			]
		}
	],
	"nodes": [
		{
			"name": "UnityGlTF_root",
			"children": [
				3
			]
		},
		{
			"name": "node_Car - Volkswagen Golf (1991)_bodydetachobj3_-184788",
			"mesh": 0,
			"translation": [ 1.062472E-07, 4.768372E-07, -0.09006643],
			"scale": [ 2.832143, 2.832143, 2.832143]
		},
		{
			"name": "node_Car - Volkswagen Golf (1991)_bodydetachobj7_-184796",
			"mesh": 1,
			"translation": [ 1.062472E-07, 4.768372E-07, -0.09006643],
			"scale": [ 2.832143, 2.832143, 2.832143]
		},
		{
			"name": "node__-184780",
			"children": [
				5,
				8,
				1,
				4,
				6,
				7,
				2,
				12,
				9,
				10,
				11
			],
			"matrix": [1, 0, 0, 0, 0, -1.192093E-07, 1, 0, 0, -1, -1.192093E-07, 0, 2.518296E-05, 0.7103691, -2.055099, 1]
		},
		{
			"name": "node_Car - Volkswagen Golf (1991)_bodydetachobj4_-184790",
			"mesh": 2,
			"translation": [ 1.062472E-07, 4.768372E-07, -0.09006643],
			"scale": [ 2.832143, 2.832143, 2.832143]
		},
		{
			"name": "node_Car - Volkswagen Golf (1991)_bodydetachobj1_-184784",
			"mesh": 3,
			"translation": [ 1.062472E-07, 4.768372E-07, -0.09006643],
			"scale": [ 2.832143, 2.832143, 2.832143]
		},
		{
			"name": "node_Car - Volkswagen Golf (1991)_bodydetachobj5_-184792",
			"mesh": 4,
			"translation": [ 1.062472E-07, 4.768372E-07, -0.09006643],
			"scale": [ 2.832143, 2.832143, 2.832143]
		},
		{
			"name": "node_Car - Volkswagen Golf (1991)_bodydetachobj6_-184794",
			"mesh": 5,
			"translation": [ 1.062472E-07, 4.768372E-07, -0.09006643],
			"scale": [ 2.832143, 2.832143, 2.832143]
		},
		{
			"name": "node_Car - Volkswagen Golf (1991)_bodydetachobj2_-184786",
			"mesh": 6,
			"translation": [ 1.062472E-07, 4.768372E-07, -0.09006643],
			"scale": [ 2.832143, 2.832143, 2.832143]
		},
		{
			"name": "node_Car - Volkswagen Golf (1991)_bodydetachobj9_-184800",
			"mesh": 7,
			"translation": [ 1.062472E-07, 4.768372E-07, -0.09006643],
			"scale": [ 2.832143, 2.832143, 2.832143]
		},
		{
			"name": "node_Car - Volkswagen Golf (1991)_bodydetachobj10_-184802",
			"mesh": 8,
			"translation": [ 1.062472E-07, 4.768372E-07, -0.09006643],
			"scale": [ 2.832143, 2.832143, 2.832143]
		},
		{
			"name": "node_Car - Volkswagen Golf (1991)_bodydetachobj11_-184804",
			"mesh": 9,
			"translation": [ 1.062472E-07, 4.768372E-07, -0.09006643],
			"scale": [ 2.832143, 2.832143, 2.832143]
		},
		{
			"name": "node_Car - Volkswagen Golf (1991)_bodydetachobj8_-184798",
			"mesh": 10,
			"translation": [ 1.062472E-07, 4.768372E-07, -0.09006643],
			"scale": [ 2.832143, 2.832143, 2.832143]
		}
	],
	"samplers": [
		{
			"magFilter": 9729,
			"minFilter": 9985,
			"wrapS": 10497,
			"wrapT": 10497
		}
	],
	"scenes": [
		{
			"name":"defaultScene",
			"nodes": [
				0
			]
		}
	],
	"scene": 0,
	"textures": [
		{
			"sampler": 0,
			"source": 0
		},
		{
			"sampler": 0,
			"source": 1
		},
		{
			"sampler": 0,
			"source": 2
		},
		{
			"sampler": 0,
			"source": 3
		},
		{
			"sampler": 0,
			"source": 4
		},
		{
			"sampler": 0,
			"source": 5
		},
		{
			"sampler": 0,
			"source": 6
		},
		{
			"sampler": 0,
			"source": 7
		}
	]
}